<svg version="1.1" id="Layer_1" xmlns="http://www.w3.org/2000/svg" xmlns:xlink="http://www.w3.org/1999/xlink" x="0px" y="0px"
	 width="100%" viewBox="0 0 512 512" enable-background="new 0 0 512 512" xml:space="preserve">
<path fill="#3D96D3" opacity="1.000000" stroke="none" 
	d="
M233.000000,0.999998 
	C248.687561,1.000000 264.375122,1.000000 280.175049,1.311353 
	C285.434784,2.906488 290.602936,4.112676 295.726013,5.486854 
	C325.362549,13.436347 350.635040,29.075636 372.482544,50.221897 
	C385.915192,63.223465 397.548981,77.846924 407.355957,93.853691 
	C419.074738,112.980812 428.684723,133.136520 435.562469,154.448364 
	C439.698639,167.265015 443.149841,180.398163 445.623779,193.629379 
	C448.175629,207.277252 449.169403,221.216461 450.474915,234.988831 
	C448.383423,234.353683 446.671356,233.728638 444.938782,233.166916 
	C432.909149,229.266769 421.377502,229.553894 410.848114,237.444824 
	C398.861420,246.427887 392.657959,259.163788 388.026672,272.900848 
	C380.391235,295.548615 380.270355,318.966888 381.212921,342.427582 
	C381.489960,349.322632 383.076202,356.165070 384.052429,363.444275 
	C387.711273,377.979553 391.117767,392.177734 395.158295,406.193176 
	C397.216278,413.331604 400.413879,420.141510 402.932861,427.397949 
	C402.185333,428.282104 401.500305,428.797333 401.032135,429.464783 
	C390.680725,444.222595 379.467010,458.171814 365.652588,469.958221 
	C353.976990,479.919769 341.841461,489.091034 327.988586,495.378235 
	C327.978149,457.780579 328.136169,420.639984 327.833374,383.503174 
	C327.773041,376.100098 326.985138,368.383575 324.762390,361.372864 
	C315.219971,331.275360 294.587433,313.453094 263.023010,310.349243 
	C239.384476,308.024780 219.248718,316.556854 203.518036,334.671356 
	C190.880219,349.224274 185.988480,366.451691 186.012802,385.416443 
	C186.060013,422.222473 186.012344,459.028687 185.655090,495.782227 
	C175.861862,489.617065 165.992798,484.058044 157.095627,477.232208 
	C148.629944,470.737366 140.611069,463.436310 133.433334,455.545837 
	C125.314117,446.620453 118.350594,436.643738 110.936539,426.741150 
	C111.667099,424.492462 112.248184,422.584320 113.039246,420.767639 
	C121.109322,402.234772 127.432747,383.195160 130.133636,362.684387 
	C133.798203,340.349609 134.426331,318.286652 131.253967,296.249390 
	C128.618164,277.939453 123.678139,260.309418 111.668831,245.630310 
	C104.100006,236.378860 94.748650,229.768875 82.047813,231.085037 
	C75.678383,231.745117 69.440582,233.675339 63.091599,234.596252 
	C64.039696,224.531937 64.439262,214.793533 66.163002,205.295456 
	C69.852341,184.966568 74.368927,164.850067 81.721092,145.390686 
	C89.014557,126.086678 97.650848,107.562943 108.987923,90.313354 
	C120.226974,73.212929 132.434631,56.840694 148.602386,44.086426 
	C159.722595,35.314018 171.173080,26.754484 183.346161,19.575333 
	C198.139938,10.850598 214.365356,5.212813 231.574112,2.910287 
	C232.124741,2.836612 232.528015,1.661597 233.000000,0.999998 
M359.223999,240.757767 
	C374.673706,231.111053 383.651306,217.077042 387.216675,199.394699 
	C390.320129,184.003326 389.757080,168.637894 387.127930,153.228989 
	C374.343933,78.304474 295.418945,28.782125 222.187057,49.803150 
	C159.623337,67.761909 120.419144,123.504547 125.159782,188.584747 
	C127.236046,217.087967 141.355316,237.336319 168.718903,247.508163 
	C182.598862,252.667740 197.059586,255.034500 211.711029,255.828552 
	C245.159637,257.641357 278.637573,258.172577 312.035065,254.885986 
	C328.370758,253.278442 344.255310,249.700500 359.223999,240.757767 
z"/>
<path fill="#000000" opacity="1.000000" stroke="none" 
	d="
M450.844849,235.028214 
	C449.169403,221.216461 448.175629,207.277252 445.623779,193.629379 
	C443.149841,180.398163 439.698639,167.265015 435.562469,154.448364 
	C428.684723,133.136520 419.074738,112.980812 407.355957,93.853691 
	C397.548981,77.846924 385.915192,63.223465 372.482544,50.221897 
	C350.635040,29.075636 325.362549,13.436347 295.726013,5.486854 
	C290.602936,4.112676 285.434784,2.906488 280.643738,1.311353 
	C358.275391,1.000000 435.550781,1.000000 513.000000,1.000000 
	C513.000000,118.020836 513.000000,235.041763 512.604980,352.724731 
	C511.824829,352.884949 511.151001,352.412659 511.096161,351.876953 
	C509.137939,332.755463 504.101898,314.400940 496.952515,296.639099 
	C487.056427,272.053284 474.129578,249.639343 450.844849,235.028214 
z"/>
<path fill="#000000" opacity="1.000000" stroke="none" 
	d="
M232.531342,0.999998 
	C232.528015,1.661597 232.124741,2.836612 231.574112,2.910287 
	C214.365356,5.212813 198.139938,10.850598 183.346161,19.575333 
	C171.173080,26.754484 159.722595,35.314018 148.602386,44.086426 
	C132.434631,56.840694 120.226974,73.212929 108.987923,90.313354 
	C97.650848,107.562943 89.014557,126.086678 81.721092,145.390686 
	C74.368927,164.850067 69.852341,184.966568 66.163002,205.295456 
	C64.439262,214.793533 64.039696,224.531937 62.911255,234.892761 
	C57.787182,239.326050 52.255207,242.489273 47.896675,246.830582 
	C34.622910,260.051910 25.410620,276.011993 18.351109,293.267090 
	C10.787428,311.754486 5.265605,330.784760 2.947911,350.687225 
	C2.850651,351.522430 1.673863,352.231934 0.999997,353.000000 
	C1.000000,235.754623 1.000000,118.509239 1.000000,1.000000 
	C78.020691,1.000000 155.041687,1.000000 232.531342,0.999998 
z"/>
<path fill="#2981BA" opacity="1.000000" stroke="none" 
	d="
M186.003983,495.834808 
	C186.012344,459.028687 186.060013,422.222473 186.012802,385.416443 
	C185.988480,366.451691 190.880219,349.224274 203.518036,334.671356 
	C219.248718,316.556854 239.384476,308.024780 263.023010,310.349243 
	C294.587433,313.453094 315.219971,331.275360 324.762390,361.372864 
	C326.985138,368.383575 327.773041,376.100098 327.833374,383.503174 
	C328.136169,420.639984 327.978149,457.780579 327.670227,495.545044 
	C313.347992,503.627716 298.611176,508.892120 282.827301,511.080933 
	C282.142639,511.175903 281.605713,512.336060 281.000000,513.000000 
	C265.312439,513.000000 249.624878,513.000000 233.638367,512.605469 
	C232.675232,511.812500 232.046082,511.147369 231.341675,511.054779 
	C215.231903,508.937012 200.252151,503.482056 186.003983,495.834808 
z"/>
<path fill="#2981BA" opacity="1.000000" stroke="none" 
	d="
M450.474915,234.988831 
	C474.129578,249.639343 487.056427,272.053284 496.952515,296.639099 
	C504.101898,314.400940 509.137939,332.755463 511.096161,351.876953 
	C511.151001,352.412659 511.824829,352.884949 512.604980,353.193390 
	C513.000000,353.750000 513.000000,354.500000 512.677734,355.416138 
	C510.639252,356.852875 508.768219,357.960754 507.232574,359.421295 
	C499.042450,367.210938 489.726532,373.072540 478.931946,376.565521 
	C462.583618,381.855591 445.918793,381.772278 429.155975,379.476166 
	C412.958832,377.257538 398.074768,371.307800 384.062439,363.031616 
	C383.076202,356.165070 381.489960,349.322632 381.212921,342.427582 
	C380.270355,318.966888 380.391235,295.548615 388.026672,272.900848 
	C392.657959,259.163788 398.861420,246.427887 410.848114,237.444824 
	C421.377502,229.553894 432.909149,229.266769 444.938782,233.166916 
	C446.671356,233.728638 448.383423,234.353683 450.474915,234.988831 
z"/>
<path fill="#2981BA" opacity="1.000000" stroke="none" 
	d="
M0.999997,353.375000 
	C1.673863,352.231934 2.850651,351.522430 2.947911,350.687225 
	C5.265605,330.784760 10.787428,311.754486 18.351109,293.267090 
	C25.410620,276.011993 34.622910,260.051910 47.896675,246.830582 
	C52.255207,242.489273 57.787182,239.326050 62.962898,235.327606 
	C69.440582,233.675339 75.678383,231.745117 82.047813,231.085037 
	C94.748650,229.768875 104.100006,236.378860 111.668831,245.630310 
	C123.678139,260.309418 128.618164,277.939453 131.253967,296.249390 
	C134.426331,318.286652 133.798203,340.349609 129.823364,362.823761 
	C112.345055,373.525116 93.997978,379.357605 74.222786,380.625549 
	C48.528679,382.273041 24.887409,377.602509 5.839921,358.554169 
	C4.607598,357.321808 2.630604,356.834076 1.000003,356.000000 
	C1.000000,355.250000 1.000000,354.500000 0.999997,353.375000 
z"/>
<path fill="#285680" opacity="1.000000" stroke="none" 
	d="
M384.052429,363.444275 
	C398.074768,371.307800 412.958832,377.257538 429.155975,379.476166 
	C445.918793,381.772278 462.583618,381.855591 478.931946,376.565521 
	C489.726532,373.072540 499.042450,367.210938 507.232574,359.421295 
	C508.768219,357.960754 510.639252,356.852875 512.677734,355.791138 
	C513.000000,374.354218 513.000000,392.708466 512.598816,411.467285 
	C511.796143,412.704895 511.167664,413.501312 511.026642,414.376312 
	C508.104523,432.504974 502.757568,449.747284 490.876129,464.125916 
	C482.028442,474.833191 470.157074,479.933746 456.152588,477.567993 
	C439.836395,474.811676 428.867371,463.897217 419.150177,451.881134 
	C412.995514,444.270416 408.394287,435.403442 403.096344,427.099915 
	C400.413879,420.141510 397.216278,413.331604 395.158295,406.193176 
	C391.117767,392.177734 387.711273,377.979553 384.052429,363.444275 
z"/>
<path fill="#285680" opacity="1.000000" stroke="none" 
	d="
M1.000003,356.468658 
	C2.630604,356.834076 4.607598,357.321808 5.839921,358.554169 
	C24.887409,377.602509 48.528679,382.273041 74.222786,380.625549 
	C93.997978,379.357605 112.345055,373.525116 129.622971,363.173767 
	C127.432747,383.195160 121.109322,402.234772 113.039246,420.767639 
	C112.248184,422.584320 111.667099,424.492462 110.642258,426.904846 
	C103.447029,441.179474 94.934555,453.698120 83.458496,464.017792 
	C75.076515,471.555176 65.793617,477.325165 54.136097,477.985504 
	C38.287556,478.883209 27.108091,471.038513 18.810942,458.452606 
	C9.948116,445.008698 5.291050,429.966339 2.947768,414.124908 
	C2.783086,413.011597 1.671352,412.038361 1.000001,411.000000 
	C1.000000,392.979095 1.000000,374.958221 1.000003,356.468658 
z"/>
<path fill="#000000" opacity="1.000000" stroke="none" 
	d="
M402.932861,427.397949 
	C408.394287,435.403442 412.995514,444.270416 419.150177,451.881134 
	C428.867371,463.897217 439.836395,474.811676 456.152588,477.567993 
	C470.157074,479.933746 482.028442,474.833191 490.876129,464.125916 
	C502.757568,449.747284 508.104523,432.504974 511.026642,414.376312 
	C511.167664,413.501312 511.796143,412.704895 512.598816,411.935944 
	C513.000000,445.622406 513.000000,479.244781 513.000000,513.000000 
	C435.979156,513.000000 358.958221,513.000000 281.468658,513.000000 
	C281.605713,512.336060 282.142639,511.175903 282.827301,511.080933 
	C298.611176,508.892120 313.347992,503.627716 327.676819,496.003448 
	C341.841461,489.091034 353.976990,479.919769 365.652588,469.958221 
	C379.467010,458.171814 390.680725,444.222595 401.032135,429.464783 
	C401.500305,428.797333 402.185333,428.282104 402.932861,427.397949 
z"/>
<path fill="#000000" opacity="1.000000" stroke="none" 
	d="
M1.000001,411.468658 
	C1.671352,412.038361 2.783086,413.011597 2.947768,414.124908 
	C5.291050,429.966339 9.948116,445.008698 18.810942,458.452606 
	C27.108091,471.038513 38.287556,478.883209 54.136097,477.985504 
	C65.793617,477.325165 75.076515,471.555176 83.458496,464.017792 
	C94.934555,453.698120 103.447029,441.179474 110.590256,427.287842 
	C118.350594,436.643738 125.314117,446.620453 133.433334,455.545837 
	C140.611069,463.436310 148.629944,470.737366 157.095627,477.232208 
	C165.992798,484.058044 175.861862,489.617065 185.655090,495.782227 
	C200.252151,503.482056 215.231903,508.937012 231.341675,511.054779 
	C232.046082,511.147369 232.675232,511.812500 233.169708,512.605469 
	C155.768066,513.000000 78.536133,513.000000 1.000000,513.000000 
	C1.000000,479.313049 1.000000,445.625183 1.000001,411.468658 
z"/>
<path fill="#E7F0F1" opacity="1.000000" stroke="none" 
	d="
M358.905396,240.931946 
	C344.255310,249.700500 328.370758,253.278442 312.035065,254.885986 
	C278.637573,258.172577 245.159637,257.641357 211.711029,255.828552 
	C197.059586,255.034500 182.598862,252.667740 168.718903,247.508163 
	C141.355316,237.336319 127.236046,217.087967 125.159782,188.584747 
	C120.419144,123.504547 159.623337,67.761909 222.187057,49.803150 
	C295.418945,28.782125 374.343933,78.304474 387.127930,153.228989 
	C389.757080,168.637894 390.320129,184.003326 387.216675,199.394699 
	C383.651306,217.077042 374.673706,231.111053 358.905396,240.931946 
M287.390717,66.975395 
	C280.353668,65.696648 273.364929,63.763744 266.272156,63.240124 
	C193.590851,57.874508 134.918472,118.759300 143.142654,190.982300 
	C145.379715,210.627762 155.614532,224.634903 174.678024,230.854004 
	C183.635193,233.776108 193.083511,236.351166 202.411636,236.762695 
	C231.512955,238.046539 260.665680,238.760117 289.793365,238.621933 
	C306.579834,238.542297 323.417969,236.786148 339.473694,230.973618 
	C356.194092,224.920486 366.592438,213.384384 370.029938,195.795029 
	C372.358368,183.880585 372.486694,171.851990 370.268768,160.009567 
	C361.425323,112.790588 333.900360,81.877060 287.390717,66.975395 
z"/>
<path fill="#66DCB8" opacity="1.000000" stroke="none" 
	d="
M287.784973,67.065208 
	C333.900360,81.877060 361.425323,112.790588 370.268768,160.009567 
	C372.486694,171.851990 372.358368,183.880585 370.029938,195.795029 
	C366.592438,213.384384 356.194092,224.920486 339.473694,230.973618 
	C323.417969,236.786148 306.579834,238.542297 289.793365,238.621933 
	C260.665680,238.760117 231.512955,238.046539 202.411636,236.762695 
	C193.083511,236.351166 183.635193,233.776108 174.678024,230.854004 
	C155.614532,224.634903 145.379715,210.627762 143.142654,190.982300 
	C134.918472,118.759300 193.590851,57.874508 266.272156,63.240124 
	C273.364929,63.763744 280.353668,65.696648 287.784973,67.065208 
M186.609894,189.530182 
	C188.158035,196.176620 191.965439,200.870071 198.518692,203.088379 
	C208.687256,206.530518 217.451019,201.187210 222.295456,188.250809 
	C222.520508,187.294205 222.939178,186.338150 222.941833,185.380936 
	C222.988297,168.656677 223.011093,151.932159 222.941132,135.208115 
	C222.935211,133.794601 222.234070,132.384003 221.492249,130.365997 
	C218.407745,119.840561 210.717545,114.378716 200.915619,116.094582 
	C192.562668,117.556793 188.309769,123.321289 185.738556,131.741638 
	C185.503677,132.694336 185.066727,133.646423 185.063950,134.599808 
	C185.015198,151.313080 184.990128,168.026627 185.065933,184.739639 
	C185.072250,186.135315 185.835999,187.527527 186.609894,189.530182 
M291.682556,131.697052 
	C291.458771,132.821259 291.042938,133.944962 291.040039,135.069748 
	C290.997192,151.616241 290.981659,168.162994 291.057831,184.709244 
	C291.064301,186.118439 291.769226,187.524414 292.523376,189.537094 
	C295.268921,198.653488 301.143219,203.720856 309.279449,203.991501 
	C317.104034,204.251770 323.980469,199.612839 326.585236,192.279221 
	C327.082153,190.880157 327.456909,189.437698 328.323364,187.306549 
	C328.538544,186.346466 328.938690,185.386871 328.941315,184.426208 
	C328.986053,168.037292 329.011078,151.648102 328.935181,135.259460 
	C328.928711,133.859833 328.178192,132.463654 327.413208,130.455582 
	C324.473572,119.954338 316.759033,114.419205 306.920135,116.081093 
	C298.540619,117.496483 294.311066,123.296440 291.682556,131.697052 
z"/>
<path fill="#44525E" opacity="1.000000" stroke="none" 
	d="
M327.888000,188.015244 
	C327.456909,189.437698 327.082153,190.880157 326.585236,192.279221 
	C323.980469,199.612839 317.104034,204.251770 309.279449,203.991501 
	C301.143219,203.720856 295.268921,198.653488 292.366791,188.773132 
	C292.181000,169.003601 292.151825,149.998062 292.122620,130.992508 
	C294.311066,123.296440 298.540619,117.496483 306.920135,116.081093 
	C316.759033,114.419205 324.473572,119.954338 327.563538,131.223068 
	C327.771942,150.665451 327.829987,169.340347 327.888000,188.015244 
z"/>
<path fill="#44525E" opacity="1.000000" stroke="none" 
	d="
M186.209763,131.066498 
	C188.309769,123.321289 192.562668,117.556793 200.915619,116.094582 
	C210.717545,114.378716 218.407745,119.840561 221.642166,131.138092 
	C221.808258,150.917999 221.824432,169.925812 221.840607,188.933640 
	C217.451019,201.187210 208.687256,206.530518 198.518692,203.088379 
	C191.965439,200.870071 188.158035,196.176620 186.457794,188.764648 
	C186.273727,169.021576 186.241745,150.044037 186.209763,131.066498 
z"/>
<path fill="#7AD5BE" opacity="1.000000" stroke="none" 
	d="
M291.902588,131.344788 
	C292.151825,149.998062 292.181000,169.003601 292.179932,188.470520 
	C291.769226,187.524414 291.064301,186.118439 291.057831,184.709244 
	C290.981659,168.162994 290.997192,151.616241 291.040039,135.069748 
	C291.042938,133.944962 291.458771,132.821259 291.902588,131.344788 
z"/>
<path fill="#7AD5BE" opacity="1.000000" stroke="none" 
	d="
M222.068024,188.592224 
	C221.824432,169.925812 221.808258,150.917999 221.824005,131.441101 
	C222.234070,132.384003 222.935211,133.794601 222.941132,135.208115 
	C223.011093,151.932159 222.988297,168.656677 222.941833,185.380936 
	C222.939178,186.338150 222.520508,187.294205 222.068024,188.592224 
z"/>
<path fill="#77D6BE" opacity="1.000000" stroke="none" 
	d="
M185.974152,131.404068 
	C186.241745,150.044037 186.273727,169.021576 186.276779,188.460236 
	C185.835999,187.527527 185.072250,186.135315 185.065933,184.739639 
	C184.990128,168.026627 185.015198,151.313080 185.063950,134.599808 
	C185.066727,133.646423 185.503677,132.694336 185.974152,131.404068 
z"/>
<path fill="#77D6BE" opacity="1.000000" stroke="none" 
	d="
M328.105682,187.660889 
	C327.829987,169.340347 327.771942,150.665451 327.743591,131.528214 
	C328.178192,132.463654 328.928711,133.859833 328.935181,135.259460 
	C329.011078,151.648102 328.986053,168.037292 328.941315,184.426208 
	C328.938690,185.386871 328.538544,186.346466 328.105682,187.660889 
z"/>
</svg>