<svg version="1.1" id="Layer_1" xmlns="http://www.w3.org/2000/svg" xmlns:xlink="http://www.w3.org/1999/xlink" x="0px" y="0px"
	 width="100%" viewBox="0 0 512 512" enable-background="new 0 0 512 512" xml:space="preserve">
<path fill="#000000" opacity="1.000000" stroke="none" 
	d="
M223.000000,513.000000 
	C149.033066,513.000000 75.066116,513.000000 1.049588,513.000000 
	C1.049588,342.442657 1.049588,171.885269 1.049588,1.000000 
	C81.354469,1.000000 161.709381,1.000000 242.409195,1.364497 
	C241.906479,2.143062 241.088364,2.837704 240.206955,2.930387 
	C214.539749,5.629396 192.451675,15.455080 175.885818,35.784168 
	C172.524017,39.909668 168.860382,42.290485 163.678558,43.189735 
	C160.833572,43.683456 158.092239,45.272392 155.517746,46.741756 
	C143.587219,53.550976 138.455460,65.114586 135.176376,77.510704 
	C127.922249,104.934006 129.623352,132.881760 131.240448,160.770187 
	C131.497757,165.207855 132.368988,169.609924 132.625046,174.117188 
	C124.296501,179.199402 117.966759,188.540924 120.785713,200.239029 
	C124.069923,213.867874 130.545822,225.082565 141.373688,233.797012 
	C144.448303,236.271515 147.841110,238.223206 148.032639,242.827469 
	C148.181870,246.415329 148.212723,250.106232 149.100540,253.543579 
	C150.651306,259.547455 151.846008,265.962006 154.910538,271.197296 
	C164.699051,287.919250 178.602127,301.299896 192.205338,314.882599 
	C193.725388,316.400360 194.834213,319.053406 194.879425,321.206329 
	C195.155441,334.349396 195.068970,347.500061 194.783783,360.843018 
	C189.934616,366.999146 185.405029,372.960449 180.452789,378.952209 
	C175.950684,379.321777 171.850128,379.506439 167.799835,380.059296 
	C165.457504,380.378998 163.196167,381.292206 160.437225,381.956421 
	C143.255890,381.424194 126.784561,382.490143 111.010147,388.847229 
	C93.491745,395.907104 80.036789,407.164520 72.492668,424.892090 
	C64.090317,444.636444 64.907898,465.458069 65.140709,486.205872 
	C65.183250,489.996796 67.017448,492.380737 71.325157,493.142761 
	C87.142952,495.940887 102.805862,499.738403 118.692780,501.991089 
	C139.325531,504.916656 160.111130,506.777039 180.842834,508.984192 
	C187.098602,509.650238 193.387314,510.106781 199.673004,510.361725 
	C205.277893,510.589111 210.899445,510.405670 216.884277,510.560181 
	C219.169952,511.477905 221.084976,512.238953 223.000000,513.000000 
z"/>
<path fill="#000000" opacity="1.000000" stroke="none" 
	d="
M270.000000,0.999999 
	C350.963837,1.000000 431.927643,1.000000 512.945740,1.000000 
	C512.945740,171.554245 512.945740,342.108521 512.945740,513.000000 
	C439.645569,513.000000 366.290649,513.000000 292.324310,512.606750 
	C294.019226,511.680878 296.325562,511.148285 299.117676,510.725006 
	C309.053131,510.550232 318.511536,510.431549 327.949951,509.933716 
	C336.709930,509.471649 345.478363,508.863190 354.190063,507.859283 
	C369.636475,506.079315 385.113373,504.378815 400.445984,501.848175 
	C415.799500,499.314087 431.005951,495.869904 446.232269,492.616150 
	C447.637787,492.315796 449.588470,490.649506 449.797729,489.373474 
	C450.545135,484.815430 451.083557,480.135559 450.907440,475.532135 
	C450.559601,466.437958 449.874695,457.345215 448.987976,448.285248 
	C446.058197,418.349915 430.123230,398.411621 402.112518,387.902893 
	C386.877014,382.187073 371.017273,381.412201 354.792603,381.652283 
	C347.769073,380.510773 340.942596,379.711639 333.967712,378.598694 
	C329.249084,372.173309 324.678833,366.061737 320.059784,359.486877 
	C320.000153,348.857025 320.378204,338.670288 319.852844,328.530334 
	C319.447754,320.712646 321.089905,315.057434 327.541809,309.416199 
	C336.757233,301.358673 344.358948,291.413696 352.381805,282.045227 
	C361.091034,271.875305 365.616333,260.015778 366.118195,246.533615 
	C366.236542,243.354218 366.802612,238.761276 368.887817,237.327499 
	C379.091339,230.311493 385.965637,220.967163 391.049286,209.938232 
	C394.110718,203.296448 394.823730,196.256042 393.821808,189.314453 
	C392.673279,181.356979 386.972198,176.465851 379.959625,172.695389 
	C380.069946,171.451859 380.072662,170.604248 380.267212,169.803253 
	C386.868317,142.626740 389.098877,115.096924 385.906158,87.310310 
	C383.200226,63.760048 373.175568,44.280064 352.610352,31.028421 
	C328.421417,15.441732 302.145752,5.968261 273.526520,2.923670 
	C272.296692,2.792840 271.173096,1.663954 270.000000,0.999999 
z"/>
<path fill="#240703" opacity="1.000000" stroke="none" 
	d="
M269.531342,0.999999 
	C271.173096,1.663954 272.296692,2.792840 273.526520,2.923670 
	C302.145752,5.968261 328.421417,15.441732 352.610352,31.028421 
	C373.175568,44.280064 383.200226,63.760048 385.906158,87.310310 
	C389.098877,115.096924 386.868317,142.626740 380.267212,169.803253 
	C380.072662,170.604248 380.069946,171.451859 379.609375,172.747406 
	C370.491974,170.866150 368.154236,178.118164 364.545685,184.380066 
	C362.199890,166.157074 359.670166,149.293289 347.841003,135.857437 
	C347.355255,135.952957 346.869507,136.048492 346.383759,136.144012 
	C346.383759,141.354248 346.383759,146.564484 346.383759,151.904114 
	C332.812103,150.603317 321.718475,144.845642 311.019653,137.627884 
	C310.694855,137.357742 310.455048,137.348480 310.215240,137.339218 
	C310.278412,137.728729 310.341553,138.118225 310.495667,138.861176 
	C313.077728,144.196732 315.568909,149.178848 318.346466,154.733658 
	C268.250824,158.563095 224.453323,148.401642 194.871994,102.071548 
	C194.227737,125.513298 179.623260,140.518188 167.423050,156.750046 
	C165.479462,152.568375 163.661758,148.657516 161.844055,144.746658 
	C161.266678,144.866470 160.689316,144.986282 160.111938,145.106094 
	C152.086761,157.375992 158.284149,171.626968 155.699951,185.388580 
	C150.229340,176.727982 143.583206,172.070663 133.611526,174.639435 
	C133.455948,174.679504 133.177505,174.242706 132.956406,174.028442 
	C132.368988,169.609924 131.497757,165.207855 131.240448,160.770187 
	C129.623352,132.881760 127.922249,104.934006 135.176376,77.510704 
	C138.455460,65.114586 143.587219,53.550976 155.517746,46.741756 
	C158.092239,45.272392 160.833572,43.683456 163.678558,43.189735 
	C168.860382,42.290485 172.524017,39.909668 175.885818,35.784168 
	C192.451675,15.455080 214.539749,5.629396 240.206955,2.930387 
	C241.088364,2.837704 241.906479,2.143062 242.877045,1.364497 
	C251.687561,1.000000 260.375122,1.000000 269.531342,0.999999 
z"/>
<path fill="#45738D" opacity="1.000000" stroke="none" 
	d="
M298.631897,510.615692 
	C296.325562,511.148285 294.019226,511.680878 291.856445,512.606750 
	C283.312439,513.000000 274.624878,513.000000 265.729675,512.699097 
	C266.825256,508.268982 268.128479,504.139709 269.784515,499.890778 
	C271.235596,498.147430 272.499451,496.610901 273.407288,494.886963 
	C287.062317,468.956085 300.720154,443.026428 314.262390,417.036621 
	C318.935577,408.068024 323.293579,398.935211 328.025421,389.627716 
	C330.208923,385.889526 332.162537,382.401031 334.116150,378.912537 
	C340.942596,379.711639 347.769073,380.510773 354.498016,381.940125 
	C354.242859,384.049530 354.031769,385.525269 353.935974,387.008423 
	C353.015106,401.264526 351.946716,415.514496 351.309723,429.783569 
	C351.121918,433.989685 349.646423,435.163177 345.652313,434.966339 
	C339.642670,434.670227 333.607635,434.889191 327.583374,434.889191 
	C327.412872,435.384888 327.242371,435.880554 327.071869,436.376251 
	C332.965332,442.347168 338.858765,448.318054 344.988495,454.528351 
	C340.079102,460.414337 335.165466,466.253784 330.308075,472.139648 
	C319.734131,484.952454 309.188843,497.788910 298.631897,510.615692 
z"/>
<path fill="#45738D" opacity="1.000000" stroke="none" 
	d="
M223.468658,513.000000 
	C221.084976,512.238953 219.169952,511.477905 216.778656,510.252441 
	C215.318695,508.457306 214.401199,507.071136 213.341217,505.804199 
	C200.744949,490.748871 188.094116,475.739014 175.531082,460.656067 
	C170.126541,454.167419 170.204178,454.103058 176.138763,448.232056 
	C180.298340,444.117096 184.457413,440.001587 189.626923,434.886780 
	C181.415939,434.886780 174.936920,434.765564 168.465775,434.938538 
	C165.288467,435.023438 164.056259,433.972198 163.985733,430.686981 
	C163.807312,422.376801 163.418579,414.065887 162.884628,405.770081 
	C162.372696,397.816467 161.572098,389.881470 160.898376,381.938293 
	C163.196167,381.292206 165.457504,380.378998 167.799835,380.059296 
	C171.850128,379.506439 175.950684,379.321777 180.597244,379.277954 
	C183.175964,383.008911 185.187592,386.444672 187.172974,390.245636 
	C187.454620,391.379242 187.695404,392.183014 188.079987,392.910858 
	C204.383011,423.763947 220.673859,454.623535 237.038437,485.443970 
	C239.669495,490.399139 242.636688,495.175781 245.653107,500.305603 
	C247.238464,504.717499 248.619232,508.858734 250.000000,513.000000 
	C241.312439,513.000000 232.624863,513.000000 223.468658,513.000000 
z"/>
<path fill="#0A2028" opacity="1.000000" stroke="none" 
	d="
M250.466125,513.000000 
	C248.619232,508.858734 247.238464,504.717499 245.558563,499.876282 
	C242.767746,483.644226 240.195816,468.123962 237.893860,452.563782 
	C237.629349,450.775696 238.381546,448.387329 239.506439,446.927795 
	C242.902481,442.521149 246.714615,438.435120 250.538467,434.023468 
	C244.838684,429.663574 241.032166,424.608276 239.858398,417.592590 
	C245.631195,412.313751 251.314911,407.371979 257.359894,402.507019 
	C263.547852,407.701935 269.374542,412.819977 275.048157,418.283997 
	C271.940735,423.993469 268.986420,429.356934 265.635132,435.441101 
	C267.964142,438.125427 271.000458,442.070099 274.514008,445.530121 
	C277.203522,448.178711 277.661713,450.834961 277.031128,454.409332 
	C274.354004,469.584290 271.941071,484.805878 269.431671,500.010437 
	C268.128479,504.139709 266.825256,508.268982 265.261017,512.699097 
	C260.310730,513.000000 255.621490,513.000000 250.466125,513.000000 
z"/>
<path fill="#F9D7AA" opacity="1.000000" stroke="none" 
	d="
M311.104645,137.888748 
	C321.718475,144.845642 332.812103,150.603317 346.383759,151.904114 
	C346.383759,146.564484 346.383759,141.354248 346.383759,136.144012 
	C346.869507,136.048492 347.355255,135.952957 347.841003,135.857437 
	C359.670166,149.293289 362.199890,166.157074 364.545685,184.380066 
	C368.154236,178.118164 370.491974,170.866150 379.591217,173.165070 
	C386.972198,176.465851 392.673279,181.356979 393.821808,189.314453 
	C394.823730,196.256042 394.110718,203.296448 391.049286,209.938232 
	C385.965637,220.967163 379.091339,230.311493 368.887817,237.327499 
	C366.802612,238.761276 366.236542,243.354218 366.118195,246.533615 
	C365.616333,260.015778 361.091034,271.875305 352.381805,282.045227 
	C344.358948,291.413696 336.757233,301.358673 327.541809,309.416199 
	C321.089905,315.057434 319.447754,320.712646 319.852844,328.530334 
	C320.378204,338.670288 320.000153,348.857025 319.834900,359.744751 
	C308.638885,367.858490 297.655273,375.306000 286.588135,382.627258 
	C276.771118,389.121552 266.861359,395.475647 256.717773,401.635132 
	C245.584656,394.032898 234.771561,386.618988 223.854187,379.362000 
	C214.331650,373.032166 204.691528,366.879272 195.103363,360.648193 
	C195.068970,347.500061 195.155441,334.349396 194.879425,321.206329 
	C194.834213,319.053406 193.725388,316.400360 192.205338,314.882599 
	C178.602127,301.299896 164.699051,287.919250 154.910538,271.197296 
	C151.846008,265.962006 150.651306,259.547455 149.100540,253.543579 
	C148.212723,250.106232 148.181870,246.415329 148.032639,242.827469 
	C147.841110,238.223206 144.448303,236.271515 141.373688,233.797012 
	C130.545822,225.082565 124.069923,213.867874 120.785713,200.239029 
	C117.966759,188.540924 124.296501,179.199402 132.625046,174.117188 
	C133.177505,174.242706 133.455948,174.679504 133.611526,174.639435 
	C143.583206,172.070663 150.229340,176.727982 155.699951,185.388580 
	C158.284149,171.626968 152.086761,157.375992 160.111938,145.106094 
	C160.689316,144.986282 161.266678,144.866470 161.844055,144.746658 
	C163.661758,148.657516 165.479462,152.568375 167.423050,156.750046 
	C179.623260,140.518188 194.227737,125.513298 194.871994,102.071548 
	C224.453323,148.401642 268.250824,158.563095 318.346466,154.733658 
	C315.568909,149.178848 313.077728,144.196732 310.676544,138.713104 
	C310.766510,138.211609 311.104645,137.888748 311.104645,137.888748 
M282.593201,340.145172 
	C251.790237,352.161407 225.946686,340.975006 201.839630,322.076935 
	C201.541260,322.979431 201.423660,323.144653 201.455566,323.272614 
	C201.574173,323.748444 201.640640,324.281036 201.905792,324.670288 
	C216.454544,346.027740 233.552246,363.946320 261.034821,367.243042 
	C281.534180,369.702057 299.912994,364.293121 316.076813,351.459656 
	C317.197876,350.569611 318.763275,349.262360 318.787537,348.120789 
	C319.000824,338.083130 318.911072,328.039032 318.911072,318.790161 
	C306.933258,325.873688 295.119232,332.860321 282.593201,340.145172 
z"/>
<path fill="#12273F" opacity="1.000000" stroke="none" 
	d="
M160.437225,381.956421 
	C161.572098,389.881470 162.372696,397.816467 162.884628,405.770081 
	C163.418579,414.065887 163.807312,422.376801 163.985733,430.686981 
	C164.056259,433.972198 165.288467,435.023438 168.465775,434.938538 
	C174.936920,434.765564 181.415939,434.886780 189.626923,434.886780 
	C184.457413,440.001587 180.298340,444.117096 176.138763,448.232056 
	C170.204178,454.103058 170.126541,454.167419 175.531082,460.656067 
	C188.094116,475.739014 200.744949,490.748871 213.341217,505.804199 
	C214.401199,507.071136 215.318695,508.457306 216.408020,510.095795 
	C210.899445,510.405670 205.277893,510.589111 199.673004,510.361725 
	C193.387314,510.106781 187.098602,509.650238 180.842834,508.984192 
	C160.111130,506.777039 139.325531,504.916656 118.692780,501.991089 
	C102.805862,499.738403 87.142952,495.940887 71.325157,493.142761 
	C67.017448,492.380737 65.183250,489.996796 65.140709,486.205872 
	C64.907898,465.458069 64.090317,444.636444 72.492668,424.892090 
	C80.036789,407.164520 93.491745,395.907104 111.010147,388.847229 
	C126.784561,382.490143 143.255890,381.424194 160.437225,381.956421 
z"/>
<path fill="#B3ECFE" opacity="1.000000" stroke="none" 
	d="
M194.783783,360.843018 
	C204.691528,366.879272 214.331650,373.032166 223.854187,379.362000 
	C234.771561,386.618988 245.584656,394.032898 256.719543,401.716431 
	C256.996033,402.054230 256.998627,402.430206 256.998627,402.430206 
	C251.314911,407.371979 245.631195,412.313751 239.520203,417.640625 
	C233.874603,422.083801 228.358841,425.821655 223.534302,430.303528 
	C219.831787,433.743011 218.174927,432.243011 215.919891,428.986572 
	C207.607315,416.982819 199.157227,405.073822 190.683990,393.182556 
	C189.772629,391.903534 188.372574,390.972717 187.199203,389.880402 
	C185.187592,386.444672 183.175964,383.008911 181.019897,379.247467 
	C185.405029,372.960449 189.934616,366.999146 194.783783,360.843018 
z"/>
<path fill="#12273F" opacity="1.000000" stroke="none" 
	d="
M299.117676,510.725006 
	C309.188843,497.788910 319.734131,484.952454 330.308075,472.139648 
	C335.165466,466.253784 340.079102,460.414337 344.988495,454.528351 
	C338.858765,448.318054 332.965332,442.347168 327.071869,436.376251 
	C327.242371,435.880554 327.412872,435.384888 327.583374,434.889191 
	C333.607635,434.889191 339.642670,434.670227 345.652313,434.966339 
	C349.646423,435.163177 351.121918,433.989685 351.309723,429.783569 
	C351.946716,415.514496 353.015106,401.264526 353.935974,387.008423 
	C354.031769,385.525269 354.242859,384.049530 354.695068,382.282532 
	C371.017273,381.412201 386.877014,382.187073 402.112518,387.902893 
	C430.123230,398.411621 446.058197,418.349915 448.987976,448.285248 
	C449.874695,457.345215 450.559601,466.437958 450.907440,475.532135 
	C451.083557,480.135559 450.545135,484.815430 449.797729,489.373474 
	C449.588470,490.649506 447.637787,492.315796 446.232269,492.616150 
	C431.005951,495.869904 415.799500,499.314087 400.445984,501.848175 
	C385.113373,504.378815 369.636475,506.079315 354.190063,507.859283 
	C345.478363,508.863190 336.709930,509.471649 327.949951,509.933716 
	C318.511536,510.431549 309.053131,510.550232 299.117676,510.725006 
z"/>
<path fill="#B3EDFE" opacity="1.000000" stroke="none" 
	d="
M257.359894,402.507019 
	C256.998627,402.430206 256.996033,402.054230 256.994263,401.972931 
	C266.861359,395.475647 276.771118,389.121552 286.588135,382.627258 
	C297.655273,375.306000 308.638885,367.858490 319.883667,360.208008 
	C324.678833,366.061737 329.249084,372.173309 333.967743,378.598694 
	C332.162537,382.401031 330.208923,385.889526 327.701569,389.707825 
	C326.347412,390.849579 325.417358,391.569580 324.766113,392.487396 
	C316.311829,404.402161 307.878937,416.332214 299.480743,428.286621 
	C295.790314,433.539734 295.878723,433.507477 291.013000,429.767059 
	C285.794891,425.755798 280.476074,421.875488 275.201233,417.938019 
	C269.374542,412.819977 263.547852,407.701935 257.359894,402.507019 
z"/>
<path fill="#F9D7AA" opacity="1.000000" stroke="none" 
	d="
M310.585632,138.359680 
	C310.341553,138.118225 310.278412,137.728729 310.215240,137.339218 
	C310.455048,137.348480 310.694855,137.357742 311.019653,137.627884 
	C311.104645,137.888748 310.766510,138.211609 310.585632,138.359680 
z"/>
<path fill="#89BFD4" opacity="1.000000" stroke="none" 
	d="
M275.048157,418.283997 
	C280.476074,421.875488 285.794891,425.755798 291.013000,429.767059 
	C295.878723,433.507477 295.790314,433.539734 299.480743,428.286621 
	C307.878937,416.332214 316.311829,404.402161 324.766113,392.487396 
	C325.417358,391.569580 326.347412,390.849579 327.471680,389.957520 
	C323.293579,398.935211 318.935577,408.068024 314.262390,417.036621 
	C300.720154,443.026428 287.062317,468.956085 273.407288,494.886963 
	C272.499451,496.610901 271.235596,498.147430 269.784485,499.890778 
	C271.941071,484.805878 274.354004,469.584290 277.031128,454.409332 
	C277.661713,450.834961 277.203522,448.178711 274.514008,445.530121 
	C271.000458,442.070099 267.964142,438.125427 265.635132,435.441101 
	C268.986420,429.356934 271.940735,423.993469 275.048157,418.283997 
z"/>
<path fill="#89BFD4" opacity="1.000000" stroke="none" 
	d="
M187.172974,390.245636 
	C188.372574,390.972717 189.772629,391.903534 190.683990,393.182556 
	C199.157227,405.073822 207.607315,416.982819 215.919891,428.986572 
	C218.174927,432.243011 219.831787,433.743011 223.534302,430.303528 
	C228.358841,425.821655 233.874603,422.083801 239.431122,417.977753 
	C241.032166,424.608276 244.838684,429.663574 250.538467,434.023468 
	C246.714615,438.435120 242.902481,442.521149 239.506439,446.927795 
	C238.381546,448.387329 237.629349,450.775696 237.893860,452.563782 
	C240.195816,468.123962 242.767746,483.644226 245.353973,499.605652 
	C242.636688,495.175781 239.669495,490.399139 237.038437,485.443970 
	C220.673859,454.623535 204.383011,423.763947 188.079987,392.910858 
	C187.695404,392.183014 187.454620,391.379242 187.172974,390.245636 
z"/>
<path fill="#E8AD6C" opacity="1.000000" stroke="none" 
	d="
M282.949219,339.996094 
	C295.119232,332.860321 306.933258,325.873688 318.911072,318.790161 
	C318.911072,328.039032 319.000824,338.083130 318.787537,348.120789 
	C318.763275,349.262360 317.197876,350.569611 316.076813,351.459656 
	C299.912994,364.293121 281.534180,369.702057 261.034821,367.243042 
	C233.552246,363.946320 216.454544,346.027740 201.905792,324.670288 
	C201.640640,324.281036 201.574173,323.748444 201.455566,323.272614 
	C201.423660,323.144653 201.541260,322.979431 201.839630,322.076935 
	C225.946686,340.975006 251.790237,352.161407 282.949219,339.996094 
z"/>
</svg>